<?xml version="1.0" encoding="UTF-8"?>
<svg id="Layer_1" data-name="Layer 1" xmlns="http://www.w3.org/2000/svg" viewBox="0 0 32 32">
  <defs>
    <style>
      .cls-1 {
        fill: #fc0;
      }

      .cls-1, .cls-2, .cls-3, .cls-4 {
        stroke-width: 0px;
      }

      .cls-2 {
        fill: #83deff;
      }

      .cls-3 {
        fill: #8dd470;
      }

      .cls-4 {
        fill: #6b7d8e;
      }
    </style>
  </defs>
  <g>
    <g>
      <path class="cls-3" d="M11.36,20.54c.1.14.17.3.26.45.84,1.43,1.91,2.67,3.16,3.76.52.45,1.14.66,1.89.76-.34-.3-.63-.56-.92-.82-1.34-1.25-2.51-2.63-3.31-4.29-.46-.95-.76-1.95-.68-3.01.09-1.18.52-2.23,1.48-2.97.63-.48,1.38-.65,2.18-.56,1.2.14,2.3-.2,3.33-.78.31-.17.6-.38.9-.57.12-.08.18-.17.13-.32-.45-1.48-1.03-2.89-2.1-4.05-.41-.45-.9-.79-1.49-.98-.19-.06-.35-.06-.52.04-.21.12-.44.23-.66.34-.16.07-.16.14-.04.26,1.15,1.06,1.77,2.42,2.14,3.9.22.85-.37,1.47-1.24,1.29-1.9-.39-3.65-1.15-5.23-2.29-.15-.11-.24-.1-.36.04-.36.42-.38.54-.08,1.01.15.23.3.46.47.67.43.54.51,1.11.23,1.74-.41.92-.59,1.9-.55,2.91.02.56.12,1.11.27,1.64l.73,1.83Z"/>
      <path class="cls-3" d="M12.64,17.74c.02.2.02.4.05.6.16,1,.61,1.89,1.13,2.74.07.11.17.19.28.25.61.34,1.24.62,1.93.75.56.11,1.13.17,1.67-.07.78-.36,1.44-.22,2.05.37.45.44.94.5,1.51.22.6-.3.6-.3.41-.94-.58-1.95-1.5-3.72-2.97-5.16-.9-.88-1.91-1.54-3.19-1.74-1.11-.17-2.09.35-2.53,1.38-.22.51-.33,1.04-.33,1.6Z"/>
      <path class="cls-1" d="M21.16,13.85c-.23-.2-.45-.4-.67-.61-.09-.09-.18-.1-.29-.02-.77.57-1.61,1-2.52,1.31-.01,0-.02.03-.04.04.08.11.2.15.31.21,1.34.87,2.35,2.04,3.16,3.4.13.22.25.26.48.17,1.08-.45,1.53-1.87.89-2.86-.03-.05-.07-.11-.1-.16l-1.22-1.49Z"/>
      <path class="cls-2" d="M24.02,31.14c.3,0,.75-.14,1.08-.34.37-.22.47-.51.32-.9-.54-1.37-1.12-2.72-1.75-4.04-.04-.09-.07-.2-.21-.16-.12.03-.26.03-.29.2-.01.08-.03.16-.05.24-.16.7-.52,1.23-1.23,1.44-.2.06-.17.18-.13.31.2.67.39,1.35.61,2.02.23.72.91,1.23,1.64,1.24Z"/>
      <path class="cls-2" d="M15.09,22.74c.48.55.93,1.02,1.43,1.46.11.1.24.13.38.14.5.04,1,.06,1.47-.18.27-.14.56-.19.88-.15.41.05.74.25,1.02.53.27.27.59.43.98.41.35-.02.67-.16.92-.39.18-.17.02-.43,0-.65,0-.12-.04-.23-.05-.35q-.06-.39-.4-.21c-.96.49-1.82.38-2.59-.35-.33-.31-.65-.38-1.06-.19-.51.24-1.05.28-1.6.22-.45-.05-.88-.15-1.37-.29Z"/>
      <path class="cls-2" d="M16.12,5.88c-.1-.01-.13-.02-.16-.02-.57-.03-.81-.33-.69-.88.05-.24-.1-.16-.2-.15-.81.12-1.57.39-2.29.79-.78.44-1.46,1-2.01,1.7-.05.06-.15.13-.11.2.04.1.16.05.25.05.46.01.91-.04,1.36-.11,1.39-.22,2.66-.73,3.87-1.59Z"/>
      <path class="cls-4" d="M17.88,25.27c.8.61,1.63,1.12,2.59,1.4.26.08.52.11.78.11.62,0,1-.38,1.03-.99,0-.18-.02-.24-.21-.15-.33.16-.69.24-1.06.2-.54-.05-.99-.28-1.37-.67-.23-.23-.48-.37-.81-.25-.31.11-.61.27-.96.35Z"/>
      <path class="cls-3" d="M23.51,17.55s-.06.06-.07.08c-.31.74-.83,1.27-1.59,1.56-.16.06-.1.15-.06.26.16.39.33.77.47,1.17.08.22.18.21.34.1.28-.19.43-.46.52-.78.12-.41.32-.78.69-1.02.07-.05.13-.1.11-.2-.11-.39-.21-.78-.4-1.17Z"/>
      <path class="cls-4" d="M9.43,9.3c-.05-.26-.13-.48-.14-.72,0-.14-.11-.14-.22-.14-.85.06-1.71.13-2.54.34-.71.17-1.39.4-2.02.8,1.62-.35,3.25-.45,4.92-.28Z"/>
      <path class="cls-2" d="M24.08,19.86c-.03.08-.07.17-.1.25-.19.68-.56,1.22-1.22,1.52-.13.06-.13.15-.11.27.07.3.15.6.21.91.04.21.13.2.28.1.25-.18.41-.41.49-.7.11-.38.26-.74.58-1,.05-.04.09-.1.08-.17-.05-.39-.05-.8-.21-1.18Z"/>
      <path class="cls-4" d="M5.87,10.27c.08.01.16.03.24.04.93.08,1.85.19,2.76.39.28.06.43-.01.56-.26.09-.17.1-.23-.11-.26-1.16-.15-2.31-.11-3.45.09Z"/>
      <path class="cls-4" d="M24.17,23.19c-.2.2-.39.43-.64.51-.46.15-.5.44-.4.83.02.09,0,.23.1.27.11.05.21-.04.29-.11.47-.38.6-.93.65-1.5Z"/>
      <ellipse class="cls-4" cx="13.2" cy="9.39" rx=".65" ry=".86"/>
    </g>
    <g>
      <path class="cls-2" d="M21.04,8.64c.1-.54.21-1.07.32-1.6.02-.1.04-.21.06-.31.02-.09.02-.12-.09-.09-.43.14-.87.27-1.3.4-.14.04-.15.03-.12-.11.02-.08.02-.17.05-.25.08-.21,0-.33-.17-.45-1.19-.84-2.45-1.54-3.89-1.86-.62-.14-1.24-.16-1.88-.14-.64.02-1.26.11-1.88.23-.26.05-.52.13-.78.19-.09.02-.14.07-.14.16,0,.05-.02.09-.03.14-.01.1-.05.1-.13.05-.54-.39-1.08-.78-1.62-1.16-.21-.15-.41-.3-.62-.45,0,0,0-.02,0-.03.57-.2,1.15-.39,1.72-.58,1.88-.63,3.76-1.26,5.64-1.89.16-.05.26-.04.39.07,1.43,1.22,2.86,2.43,4.3,3.65.08.07.14.1.25.05.2-.08.42-.1.64-.06.27.04.41.23.39.51-.01.13-.06.26-.08.39-.02.08,0,.13.06.18.18.15.35.3.52.44.08.06.07.1-.03.13-.22.06-.43.13-.64.19-.08.02-.12.07-.14.15-.14.7-.28,1.41-.42,2.11M21.56,4.99c-.05.01-.13,0-.15.06-.01.05.06.07.1.11.04.04.09.07.13.11.02.02.05.04.06,0,.03-.07.05-.15.02-.23-.03-.07-.1-.05-.16-.04Z"/>
      <path class="cls-2" d="M18.43,8.21c-3.32-3.63-6.43-.91-6.43-.91l-.4-2.22c.02-.11.08-.14.17-.17.57-.16,1.15-.28,1.68-.32,1.05-.13,2.04-.08,3,.23.9.29,1.73.73,2.52,1.26.17.11.33.24.49.35.06.04.08.09.06.17l-1.1,1.61Z"/>
    </g>
  </g>
  <path class="cls-1" d="M22.03,9.57s-.05.04-.09.06c-.07.03-.08.09-.09.19l-.04.21s-.03.07-.07.09c-.15.08-.33.11-.52.08-.5-.08-.75-.46-.67-.93s.49-.77,1-.69c.13.02.31.08.39.16.06.06.07.14.05.22v.02c-.02.07-.04.18-.13.16-.09-.02-.1-.12-.16-.21-.05-.08-.11-.14-.23-.16-.3-.05-.46.22-.51.51-.04.25,0,.68.32.74.04,0,.08,0,.1,0,.05,0,.06-.04.07-.07l.03-.16c.02-.12.02-.19-.07-.24-.04-.03-.09-.04-.08-.09,0-.03.03-.05.09-.04l.56.09s.07.04.06.06Z"/>
</svg>